<svg width="813px" height="368px"
 viewBox="0.00 0.00 813.00 367.82" xmlns="http://www.w3.org/2000/svg" xmlns:xlink="http://www.w3.org/1999/xlink"><g id="graph0" class="graph" transform=" rotate(0) translate(4 363.82)">
<title>%3</title>
<polygon fill="white" stroke="transparent" points="-4,4 -4,-363.82 809,-363.82 809,4 -4,4"/>
<text text-anchor="middle" x="402.5" y="-15.62" font-family="Times,serif" font-size="14.00">ビジネスルール関連図 [2019.12.1]</text>
<g id="clust1" class="cluster">
<title>cluster_warikan.domain.model.members</title>
<polygon fill="lemonchiffon" stroke="#eedd82" stroke-width="2" points="8,-38.82 8,-277.82 235,-277.82 235,-38.82 8,-38.82"/>
<text text-anchor="middle" x="121.5" y="-262.62" font-family="Times,serif" font-size="14.00">members</text>
</g>
<g id="clust2" class="cluster">
<title>cluster_warikan.domain.model</title>
<polygon fill="lemonchiffon" stroke="#eedd82" stroke-width="2" points="243,-38.82 243,-351.82 797,-351.82 797,-38.82 243,-38.82"/>
<text text-anchor="middle" x="520" y="-336.62" font-family="Times,serif" font-size="14.00">warikan.domain.model</text>
</g>
<!-- warikan.domain.model.members.Member -->
<g id="node1" class="node">
<title>warikan.domain.model.members.Member</title>
<polygon fill="#eedd82" stroke="black" points="210.93,-168.82 147.07,-168.82 147.07,-125.82 210.93,-125.82 210.93,-168.82"/>
<text text-anchor="middle" x="179" y="-153.62" font-family="Times,serif" font-size="14.00">参加者</text>
<text text-anchor="middle" x="179" y="-132.62" font-family="Times,serif" font-size="14.00">Member</text>
</g>
<!-- warikan.domain.model.members.MemberName -->
<g id="node3" class="node">
<title>warikan.domain.model.members.MemberName</title>
<polygon fill="#eedd82" stroke="black" points="227.36,-89.82 130.64,-89.82 130.64,-46.82 227.36,-46.82 227.36,-89.82"/>
<text text-anchor="middle" x="179" y="-74.62" font-family="Times,serif" font-size="14.00">参加者名</text>
<text text-anchor="middle" x="179" y="-53.62" font-family="Times,serif" font-size="14.00">MemberName</text>
</g>
<!-- warikan.domain.model.members.Member&#45;&gt;warikan.domain.model.members.MemberName -->
<g id="edge10" class="edge">
<title>warikan.domain.model.members.Member&#45;&gt;warikan.domain.model.members.MemberName</title>
<path fill="none" stroke="black" d="M179,-125.69C179,-117.83 179,-108.7 179,-100.11"/>
<polygon fill="black" stroke="black" points="182.5,-100.01 179,-90.01 175.5,-100.01 182.5,-100.01"/>
</g>
<!-- warikan.domain.model.members.SecretaryType -->
<g id="node4" class="node">
<title>warikan.domain.model.members.SecretaryType</title>
<polygon fill="#eedd82" stroke="black" points="112.14,-89.82 15.86,-89.82 15.86,-46.82 112.14,-46.82 112.14,-89.82"/>
<text text-anchor="middle" x="64" y="-74.62" font-family="Times,serif" font-size="14.00">幹事区分</text>
<text text-anchor="middle" x="64" y="-53.62" font-family="Times,serif" font-size="14.00">SecretaryType</text>
</g>
<!-- warikan.domain.model.members.Member&#45;&gt;warikan.domain.model.members.SecretaryType -->
<g id="edge11" class="edge">
<title>warikan.domain.model.members.Member&#45;&gt;warikan.domain.model.members.SecretaryType</title>
<path fill="none" stroke="black" d="M148.18,-125.69C134.39,-116.45 117.96,-105.45 103.3,-95.63"/>
<polygon fill="black" stroke="black" points="105.16,-92.67 94.9,-90.01 101.27,-98.48 105.16,-92.67"/>
</g>
<!-- warikan.domain.model.members.Members -->
<g id="node2" class="node">
<title>warikan.domain.model.members.Members</title>
<polygon fill="#eedd82" stroke="black" points="184.7,-247.82 59.3,-247.82 59.3,-204.82 184.7,-204.82 184.7,-247.82"/>
<text text-anchor="middle" x="122" y="-232.62" font-family="Times,serif" font-size="14.00">メンバーグループ</text>
<text text-anchor="middle" x="122" y="-211.62" font-family="Times,serif" font-size="14.00">Members</text>
</g>
<!-- warikan.domain.model.members.Members&#45;&gt;warikan.domain.model.members.Member -->
<g id="edge12" class="edge">
<title>warikan.domain.model.members.Members&#45;&gt;warikan.domain.model.members.Member</title>
<path fill="none" stroke="black" d="M137.27,-204.69C143.54,-196.23 150.89,-186.29 157.67,-177.14"/>
<polygon fill="black" stroke="black" points="160.55,-179.13 163.68,-169.01 154.92,-174.97 160.55,-179.13"/>
</g>
<!-- warikan.domain.model.members.Members&#45;&gt;warikan.domain.model.members.SecretaryType -->
<g id="edge13" class="edge">
<title>warikan.domain.model.members.Members&#45;&gt;warikan.domain.model.members.SecretaryType</title>
<path fill="none" stroke="black" d="M114.3,-204.6C104.29,-177.68 86.73,-130.46 75.24,-99.54"/>
<polygon fill="black" stroke="black" points="78.5,-98.27 71.73,-90.12 71.94,-100.71 78.5,-98.27"/>
</g>
<!-- warikan.domain.model.請求金額 -->
<g id="node5" class="node">
<title>warikan.domain.model.請求金額</title>
<polygon fill="#eedd82" stroke="black" points="789,-165.32 717,-165.32 717,-129.32 789,-129.32 789,-165.32"/>
<text text-anchor="middle" x="753" y="-146.62" font-family="Times,serif" font-size="14.00">請求金額</text>
</g>
<!-- warikan.domain.model.Money -->
<g id="node10" class="node">
<title>warikan.domain.model.Money</title>
<polygon fill="#eedd82" stroke="black" points="627.66,-89.82 572.34,-89.82 572.34,-46.82 627.66,-46.82 627.66,-89.82"/>
<text text-anchor="middle" x="600" y="-74.62" font-family="Times,serif" font-size="14.00">通貨</text>
<text text-anchor="middle" x="600" y="-53.62" font-family="Times,serif" font-size="14.00">Money</text>
</g>
<!-- warikan.domain.model.請求金額&#45;&gt;warikan.domain.model.Money -->
<g id="edge1" class="edge">
<title>warikan.domain.model.請求金額&#45;&gt;warikan.domain.model.Money</title>
<path fill="none" stroke="black" d="M719.04,-129.23C694.69,-116.97 661.9,-100.47 636.9,-87.89"/>
<polygon fill="black" stroke="black" points="638.24,-84.64 627.73,-83.28 635.09,-90.9 638.24,-84.64"/>
</g>
<!-- warikan.domain.model.支払区分ごとの支払割合 -->
<g id="node6" class="node">
<title>warikan.domain.model.支払区分ごとの支払割合</title>
<polygon fill="#eedd82" stroke="black" points="769,-244.32 599,-244.32 599,-208.32 769,-208.32 769,-244.32"/>
<text text-anchor="middle" x="684" y="-225.62" font-family="Times,serif" font-size="14.00">支払区分ごとの支払割合</text>
</g>
<!-- warikan.domain.model.支払割合 -->
<g id="node8" class="node">
<title>warikan.domain.model.支払割合</title>
<polygon fill="#eedd82" stroke="black" points="699,-165.32 627,-165.32 627,-129.32 699,-129.32 699,-165.32"/>
<text text-anchor="middle" x="663" y="-146.62" font-family="Times,serif" font-size="14.00">支払割合</text>
</g>
<!-- warikan.domain.model.支払区分ごとの支払割合&#45;&gt;warikan.domain.model.支払割合 -->
<g id="edge2" class="edge">
<title>warikan.domain.model.支払区分ごとの支払割合&#45;&gt;warikan.domain.model.支払割合</title>
<path fill="none" stroke="black" d="M679.34,-208.23C676.7,-198.56 673.34,-186.25 670.36,-175.3"/>
<polygon fill="black" stroke="black" points="673.66,-174.09 667.65,-165.36 666.9,-175.93 673.66,-174.09"/>
</g>
<!-- warikan.domain.model.支払区分 -->
<g id="node9" class="node">
<title>warikan.domain.model.支払区分</title>
<polygon fill="#eedd82" stroke="black" points="574,-165.32 502,-165.32 502,-129.32 574,-129.32 574,-165.32"/>
<text text-anchor="middle" x="538" y="-146.62" font-family="Times,serif" font-size="14.00">支払区分</text>
</g>
<!-- warikan.domain.model.支払区分ごとの支払割合&#45;&gt;warikan.domain.model.支払区分 -->
<g id="edge3" class="edge">
<title>warikan.domain.model.支払区分ごとの支払割合&#45;&gt;warikan.domain.model.支払区分</title>
<path fill="none" stroke="black" d="M651.6,-208.23C630.33,-197.02 602.33,-182.25 579.45,-170.18"/>
<polygon fill="black" stroke="black" points="580.79,-166.93 570.31,-165.36 577.52,-173.12 580.79,-166.93"/>
</g>
<!-- warikan.domain.model.飲み会 -->
<g id="node7" class="node">
<title>warikan.domain.model.飲み会</title>
<polygon fill="#eedd82" stroke="black" points="622,-321.82 564,-321.82 564,-285.82 622,-285.82 622,-321.82"/>
<text text-anchor="middle" x="593" y="-303.12" font-family="Times,serif" font-size="14.00">飲み会</text>
</g>
<!-- warikan.domain.model.飲み会&#45;&gt;warikan.domain.model.請求金額 -->
<g id="edge7" class="edge">
<title>warikan.domain.model.飲み会&#45;&gt;warikan.domain.model.請求金額</title>
<path fill="none" stroke="black" d="M622.1,-303.32C669.02,-303.44 758.11,-300.58 778,-277.82 803.02,-249.19 785.07,-203.23 769.36,-174.45"/>
<polygon fill="black" stroke="black" points="772.4,-172.71 764.4,-165.76 766.32,-176.18 772.4,-172.71"/>
</g>
<!-- warikan.domain.model.飲み会&#45;&gt;warikan.domain.model.支払区分ごとの支払割合 -->
<g id="edge6" class="edge">
<title>warikan.domain.model.飲み会&#45;&gt;warikan.domain.model.支払区分ごとの支払割合</title>
<path fill="none" stroke="black" d="M613.65,-285.69C625.98,-275.46 641.83,-262.31 655.36,-251.08"/>
<polygon fill="black" stroke="black" points="657.97,-253.46 663.43,-244.38 653.5,-248.08 657.97,-253.46"/>
</g>
<!-- warikan.domain.model.参加者ごとの支払金額 -->
<g id="node11" class="node">
<title>warikan.domain.model.参加者ごとの支払金額</title>
<polygon fill="#eedd82" stroke="black" points="407,-244.32 251,-244.32 251,-208.32 407,-208.32 407,-244.32"/>
<text text-anchor="middle" x="329" y="-225.62" font-family="Times,serif" font-size="14.00">参加者ごとの支払金額</text>
</g>
<!-- warikan.domain.model.飲み会&#45;&gt;warikan.domain.model.参加者ごとの支払金額 -->
<g id="edge5" class="edge">
<title>warikan.domain.model.飲み会&#45;&gt;warikan.domain.model.参加者ごとの支払金額</title>
<path fill="none" stroke="black" d="M563.69,-302.11C527.91,-300.47 466,-295.12 416,-277.82 396.64,-271.12 376.76,-259.96 360.9,-249.83"/>
<polygon fill="black" stroke="black" points="362.81,-246.9 352.53,-244.35 358.98,-252.76 362.81,-246.9"/>
</g>
<!-- warikan.domain.model.参加者ごとの支払区分 -->
<g id="node13" class="node">
<title>warikan.domain.model.参加者ごとの支払区分</title>
<polygon fill="#eedd82" stroke="black" points="581,-244.32 425,-244.32 425,-208.32 581,-208.32 581,-244.32"/>
<text text-anchor="middle" x="503" y="-225.62" font-family="Times,serif" font-size="14.00">参加者ごとの支払区分</text>
</g>
<!-- warikan.domain.model.飲み会&#45;&gt;warikan.domain.model.参加者ごとの支払区分 -->
<g id="edge4" class="edge">
<title>warikan.domain.model.飲み会&#45;&gt;warikan.domain.model.参加者ごとの支払区分</title>
<path fill="none" stroke="black" d="M572.58,-285.69C560.38,-275.46 544.71,-262.31 531.33,-251.08"/>
<polygon fill="black" stroke="black" points="533.25,-248.13 523.34,-244.38 528.75,-253.49 533.25,-248.13"/>
</g>
<!-- warikan.domain.model.参加者ごとの支払金額&#45;&gt;warikan.domain.model.members.Member -->
<g id="edge8" class="edge">
<title>warikan.domain.model.参加者ごとの支払金額&#45;&gt;warikan.domain.model.members.Member</title>
<path fill="none" stroke="black" d="M295.71,-208.23C273.38,-196.77 243.83,-181.6 220.05,-169.39"/>
<polygon fill="black" stroke="black" points="221.41,-166.15 210.91,-164.7 218.21,-172.38 221.41,-166.15"/>
</g>
<!-- warikan.domain.model.支払金額 -->
<g id="node12" class="node">
<title>warikan.domain.model.支払金額</title>
<polygon fill="#eedd82" stroke="black" points="424,-165.32 352,-165.32 352,-129.32 424,-129.32 424,-165.32"/>
<text text-anchor="middle" x="388" y="-146.62" font-family="Times,serif" font-size="14.00">支払金額</text>
</g>
<!-- warikan.domain.model.参加者ごとの支払金額&#45;&gt;warikan.domain.model.支払金額 -->
<g id="edge9" class="edge">
<title>warikan.domain.model.参加者ごとの支払金額&#45;&gt;warikan.domain.model.支払金額</title>
<path fill="none" stroke="black" d="M342.09,-208.23C349.89,-198.06 359.92,-184.97 368.61,-173.62"/>
<polygon fill="black" stroke="black" points="371.64,-175.43 374.94,-165.36 366.08,-171.17 371.64,-175.43"/>
</g>
<!-- warikan.domain.model.支払金額&#45;&gt;warikan.domain.model.Money -->
<g id="edge14" class="edge">
<title>warikan.domain.model.支払金額&#45;&gt;warikan.domain.model.Money</title>
<path fill="none" stroke="black" d="M424.44,-133.08C463.08,-119.05 523.79,-97 562.73,-82.86"/>
<polygon fill="black" stroke="black" points="563.93,-86.14 572.14,-79.44 561.54,-79.56 563.93,-86.14"/>
</g>
<!-- warikan.domain.model.参加者ごとの支払区分&#45;&gt;warikan.domain.model.members.Member -->
<g id="edge15" class="edge">
<title>warikan.domain.model.参加者ごとの支払区分&#45;&gt;warikan.domain.model.members.Member</title>
<path fill="none" stroke="black" d="M431.35,-208.25C426.16,-207.07 421,-205.92 416,-204.82 337.59,-187.61 316.48,-189.84 239,-168.82 232.93,-167.17 226.59,-165.24 220.39,-163.24"/>
<polygon fill="black" stroke="black" points="221.43,-159.89 210.84,-160.05 219.22,-166.53 221.43,-159.89"/>
</g>
<!-- warikan.domain.model.参加者ごとの支払区分&#45;&gt;warikan.domain.model.支払区分 -->
<g id="edge16" class="edge">
<title>warikan.domain.model.参加者ごとの支払区分&#45;&gt;warikan.domain.model.支払区分</title>
<path fill="none" stroke="black" d="M510.77,-208.23C515.25,-198.36 520.99,-185.74 526.04,-174.63"/>
<polygon fill="black" stroke="black" points="529.3,-175.91 530.25,-165.36 522.93,-173.02 529.3,-175.91"/>
</g>
</g>
</svg>
